<?xml version="1.0" encoding="UTF-8" standalone="no"?>
<svg
   xmlns:dc="http://purl.org/dc/elements/1.1/"
   xmlns:cc="http://creativecommons.org/ns#"
   xmlns:rdf="http://www.w3.org/1999/02/22-rdf-syntax-ns#"
   xmlns:svg="http://www.w3.org/2000/svg"
   xmlns="http://www.w3.org/2000/svg"
   xmlns:sodipodi="http://sodipodi.sourceforge.net/DTD/sodipodi-0.dtd"
   xmlns:inkscape="http://www.inkscape.org/namespaces/inkscape"
   width="256px"
   height="204px"
   viewBox="0 0 256 204"
   version="1.1"
   preserveAspectRatio="xMinYMin meet"
   id="svg4136"
   inkscape:version="0.91 r13725"
   sodipodi:docname="CouchDB.svg">
  <metadata
     id="metadata4172">
    <rdf:RDF>
      <cc:Work
         rdf:about="">
        <dc:format>image/svg+xml</dc:format>
        <dc:type
           rdf:resource="http://purl.org/dc/dcmitype/StillImage" />
      </cc:Work>
    </rdf:RDF>
  </metadata>
  <defs
     id="defs4170" />
  <sodipodi:namedview
     pagecolor="#ffffff"
     bordercolor="#666666"
     borderopacity="1"
     objecttolerance="10"
     gridtolerance="10"
     guidetolerance="10"
     inkscape:pageopacity="0"
     inkscape:pageshadow="2"
     inkscape:window-width="1280"
     inkscape:window-height="962"
     id="namedview4168"
     showgrid="false"
     inkscape:zoom="2.7109375"
     inkscape:cx="90.293023"
     inkscape:cy="102"
     inkscape:window-x="-8"
     inkscape:window-y="-8"
     inkscape:window-maximized="1"
     inkscape:current-layer="g4152" />
  <g
     id="g4138">
    <path
       d="M234.286972,57.1713761 L234.286972,12.8234862 L21.7740917,12.8234862 L21.7740917,57.1713761 L5.14700917,57.1713761 L5.14700917,148.039633 L250.593468,148.039633 L250.593468,57.1713761 L234.286972,57.1713761 Z"
       fill="#FF0000"
       id="path4140" />
    <path
       d="M0.710458716,149.970202 L0.710458716,52.7336514 L17.3387156,52.7336514 L17.3387156,8.38693578 L238.722349,8.38693578 L238.722349,52.7336514 L255.02767,52.7336514 L255.02767,149.970202 L0.710458716,149.970202 L0.710458716,149.970202 Z M7.64477064,146.478972 L247.197358,146.689174 L246.159266,61.6067523 L229.848073,61.6067523 L229.848073,17.2576881 L26.2071193,17.2576881 L26.2071193,61.6067523 L9.57886239,61.6067523 L7.95713761,143.664147 L7.64477064,146.478972 L7.64477064,146.478972 Z"
       fill="#EB1019"
       id="path4142" />
    <path
       d="M32.8478532,8.01937615 L32.8478532,28.0049908 L40.4221651,38.2520367 L62.6871193,30.6918165 L62.5966972,0.514348624 L32.8478532,8.01937615 Z"
       fill="#FFFFFF"
       id="path4144" />
    <path
       d="M37.4593761,109.963743 L87.7046606,121.316991 L218.395009,109.14055 L218.425541,148.773578 L37.3583853,148.773578 L37.4593761,109.963743 Z"
       stroke="#BD101D"
       fill="#BD101D"
       id="path4146" />
    <path
       d="M186.996257,81.8354495 L173.339009,76.1693945 L144.938275,56.7803303 L111.006532,67.106055 L37.4264954,61.5351193 L37.4264954,87.6388991 L84.0830826,101.024881 L217.400367,89.1831193 L217.400367,61.9543486 L186.996257,81.8354495 Z"
       stroke="#BD101D"
       fill="#BD101D"
       id="path4148" />
    <path
       d="M17.3199266,44.2151927 L8.90950459,53.1117798 L8.90950459,76.9667523 L20.7841468,82.0209908 L20.7841468,68.242789 L25.837211,72.2025688 L25.837211,62.7892844 L37.4264954,62.7869358 L58.8764771,95.085211 L66.7866422,97.242422 L77.5280734,141.754716 L83.1013578,144.065761 L87.0435229,160.351119 L118.126385,160.351119 L103.178569,98.5729174 L145.404477,71.1550826 L168.369321,90.5594128 L173.948477,88.3740183 L176.065761,94.1434128 L217.400367,90.4337615 L213.812844,81.2764771 L190.556771,75.5892844 L148.447119,41.2794128 L102.564404,58.6838899 L88.4656147,40.1297615 L109.705394,18.5365138 L129.949358,18.5365138 L137.935853,25.2653211 L137.935853,18.5365138 L153.846606,18.5365138 L150.003083,9.60704587 L103.399339,2.22766972 L60.3760734,29.7817248 L17.3199266,44.2151927 Z"
       fill="#FFFFFF"
       id="path4150" />
    <g
       transform="translate(3.522936, 156.183486)"
       fill="#000000"
       id="g4152">
      <path
         d="m 116.32381,44.457991 c -1.87773,0.971156 -6.01953,2.006899 -11.26166,2.006899 -13.84983,0 -22.263775,-8.736881 -22.263775,-22.005431 0,-14.367707 9.966385,-23.0411745 23.299525,-23.0411745 5.24213,0 8.9964,1.1015046 10.6146,1.9411376 l -1.74737,6.3424587 c -2.07149,-0.9053944 -4.91802,-1.6827889 -8.54312,-1.6827889 -8.867231,0 -15.274277,5.5662381 -15.274277,16.0504951 0,9.578863 5.630826,15.728734 15.209687,15.728734 3.2364,0 6.60198,-0.64822 8.67229,-1.618202 l 1.2941,6.277872 0,0 z"
         id="path4154"
         inkscape:connector-curvature="0" />
      <path
         d="m 150.6877,29.702762 c 0,11.584587 -8.15443,16.762128 -16.18085,16.762128 -8.93181,0 -15.79214,-6.148697 -15.79214,-16.245431 0,-10.355083 6.79574,-16.698716 16.31001,-16.698716 9.38393,0.0012 15.66298,6.603156 15.66298,16.182019 l 0,0 z m -23.75399,0.322935 c 0,6.08411 2.97689,10.679193 7.83149,10.679193 4.5305,0 7.70231,-4.465908 7.70231,-10.808367 0,-4.918018 -2.20066,-10.548844 -7.63655,-10.548844 -5.632,0 -7.89725,5.434716 -7.89725,10.678018 l 0,0 z"
         id="path4156"
         inkscape:connector-curvature="0" />
      <path
         d="m 184.35639,36.303569 c 0,3.754275 0.12918,6.86033 0.25953,9.449688 l -6.99068,0 -0.3887,-4.788844 -0.12917,0 c -1.35868,2.265248 -4.46591,5.501651 -10.09674,5.501651 -5.76,0 -11.0033,-3.430165 -11.0033,-13.721834 l 0,-18.510679 7.96066,0 0,17.150825 c 0,5.242129 1.68279,8.607707 5.88917,8.607707 3.17182,0 5.24213,-2.265248 6.08411,-4.272147 0.25953,-0.711633 0.45329,-1.55244 0.45329,-2.459009 l 0,-19.028551 7.96066,0 0,22.071193 0.001,0 z"
         id="path4158"
         inkscape:connector-curvature="0" />
      <path
         d="m 214.95896,44.782101 c -1.68396,0.777395 -4.98378,1.683963 -8.93181,1.683963 -9.83722,0 -16.24426,-6.342458 -16.24426,-16.116257 0,-9.449688 6.47163,-16.827889 17.53952,-16.827889 2.91229,0 5.89035,0.647045 7.70231,1.489027 l -1.42326,5.953762 c -1.29527,-0.582459 -3.17064,-1.229505 -6.01953,-1.229505 -6.08411,0 -9.70803,4.465908 -9.64345,10.225908 0,6.472808 4.20756,10.161321 9.64345,10.161321 2.78312,0 4.72426,-0.582458 6.27788,-1.229504 l 1.09915,5.889174 0,0 z"
         id="path4160"
         inkscape:connector-curvature="0" />
      <path
         d="m 219.54113,-0.1999173 8.02524,0 0,18.7690273 0.13035,0 c 0.96998,-1.489027 2.32866,-2.783119 3.94687,-3.623926 1.55244,-0.905395 3.43134,-1.424441 5.43706,-1.424441 5.3713,0 11.0033,3.55934 11.0033,13.656074 l 0,18.575266 -7.96066,0 0,-17.668698 c 0,-4.595082 -1.68396,-8.026422 -6.08528,-8.026422 -3.10606,0 -5.30789,2.071487 -6.14753,4.465909 -0.25952,0.64822 -0.32411,1.490202 -0.32411,2.395596 l 0,18.833615 -8.02524,0 0,-45.9520003 0,0 z"
         id="path4162"
         inkscape:connector-curvature="0" />
      <text
         xml:space="preserve"
         style="font-style:normal;font-variant:normal;font-weight:normal;font-stretch:normal;font-size:12.5px;line-height:100%;font-family:Calibri;-inkscape-font-specification:'Calibri, Normal';text-align:start;letter-spacing:0px;word-spacing:0px;writing-mode:lr-tb;text-anchor:start;fill:#000000;fill-opacity:1;stroke:none;stroke-width:1px;stroke-linecap:butt;stroke-linejoin:miter;stroke-opacity:1"
         x="2.3790843"
         y="43.066452"
         id="text4174"
         sodipodi:linespacing="100%"><tspan
           sodipodi:role="line"
           id="tspan4176"
           x="2.3790843"
           y="43.066452"
           style="font-style:normal;font-variant:normal;font-weight:bold;font-stretch:normal;font-size:60px;font-family:'Century Gothic';-inkscape-font-specification:'Century Gothic Bold'">IQ</tspan></text>
    </g>
  </g>
</svg>
